<svg version="1.1"
      xmlns="http://www.w3.org/2000/svg"
      xmlns:xlink="http://www.w3.org/1999/xlink"  id="snapshot-50440" width="250" height="250" viewBox="0 0 250 250"><desc>This image was made on Patterninja.com</desc><defs>
<!-- image 46804 -->
<g id="transformed-46804" data-image="46804" transform="translate(-18.430437071589754, 54.009562928410205) rotate(45, 25.980437071589755, 25.980437071589794)"><g><svg version="1.1" width="51.96087414317951px" height="51.96087414317959px" viewBox="0 0 51.96087414317951 51.96087414317959"><g id="original-46804"><svg xmlns="http://www.w3.org/2000/svg" viewBox="0 0 58 58" xmlns:xlink="http://www.w3.org/1999/xlink" version="1.1" preserveAspectRatio="xMidYMid meet">
  <path d="M29 0C13.01 0 0 13.009 0 29s13.01 29 29 29 29-13.009 29-29S44.99 0 29 0zm27 29a27.03 27.03 0 0 1-.492 5.115c-2.68-11.081-6.982-18.874-17.726-24.449.671-.817 1.375-1.647 2.118-2.52.549-.645 1.121-1.319 1.703-2.015C50.157 9.667 56 18.662 56 29zM8.168 46.158a27.032 27.032 0 0 1-4.403-7.569c4.645 1.993 8.561 3.001 12.669 3.001 4.88 0 10.052-1.436 17.024-4.311a44.7 44.7 0 0 1 3.204 7.184C24.248 49.4 18.779 48.87 8.168 46.158zm7.858-14.151c4.546 0 8.78-.619 12.6-1.84l.117.156a45.47 45.47 0 0 1 3.715 5.202c-13.703 5.609-19.664 5.053-29.526.499a26.853 26.853 0 0 1-.9-5.749c4.884 1.15 9.584 1.732 13.994 1.732zm14.288-2.921l-.275-.367c.404-3.853 1.07-6.867 1.975-9.407C42.76 26.641 47.391 35.536 47.37 48.763a27.123 27.123 0 0 1-6.583 4.524c-1.246-9.165-4.77-17.314-10.473-24.201zm-2.232-.844c-2.821.909-5.889 1.467-9.158 1.671 1.57-13.933 5.712-18.927 12.457-27.053l.576-.695c2.739.3 5.354 1.011 7.786 2.07-.465.553-.923 1.093-1.367 1.614-5.216 6.126-9.006 10.601-10.294 22.393zm1.404-26.23C22.892 9.96 18.491 15.494 16.905 29.993a52.805 52.805 0 0 1-6.972-.351c1.484-13.674 4.794-17.652 11.244-25.388l1.186-1.427A26.997 26.997 0 0 1 29 2c.163 0 .323.009.486.012zM18.77 4.019C12.824 11.177 9.436 15.787 7.95 29.38a66.978 66.978 0 0 1-5.93-1.164c.314-10.93 7.15-20.251 16.75-24.197zm-8.057 44.823c3.717.866 6.88 1.388 10.099 1.388 4.695 0 9.546-1.121 16.441-3.853a48.815 48.815 0 0 1 1.61 7.748A26.813 26.813 0 0 1 29 56c-7.049 0-13.473-2.718-18.287-7.158zm38.629-2.118c-.447-13.008-5.515-21.912-16.576-29.321 1.023-2.304 2.28-4.234 3.747-6.144C47.99 17.091 51.819 25.613 54.374 38.23a27.022 27.022 0 0 1-5.032 8.494z" fill="rgba(0, 0, 0, 1)" stroke="none"/>
</svg>
</g></svg></g></g>
<!-- /image 46804 -->

<!-- image 66987 -->
<g id="transformed-66987" data-image="66987" transform="translate(61.52137488327103, 235.47137488327104) rotate(339, 14.508625116728972, 14.508625116728965)"><g><svg version="1.1" width="29.017250233457943px" height="29.01725023345793px" viewBox="0 0 29.017250233457943 29.01725023345793"><g id="original-66987"><svg xmlns="http://www.w3.org/2000/svg" viewBox="0 0 305.422 305.422" xmlns:xlink="http://www.w3.org/1999/xlink" version="1.1" preserveAspectRatio="xMidYMid meet">
  <path d="M35.727 192.027L16.656 211.1c-21.618 21.611-22.232 56.063-1.399 78.428.241.26.492.51.751.752 10.484 9.766 24.155 15.143 38.497 15.143 15.084 0 29.266-5.873 39.932-16.541l19.078-19.078 107.52-43.965.138-.055 57.304-23.432c18.434-7.533 24.439-19.727 26.231-28.627 2.857-14.193-3.296-30.525-16.459-43.686-10.889-10.889-26.24-16.379-42.33-16.133 1.202-14.109-3.35-28.625-13.729-39.859a16.557 16.557 0 0 0-.838-.838c-11.236-10.381-25.754-14.926-39.861-13.73.254-16.102-5.246-31.443-16.134-42.332C164.32 6.107 151.056 0 138.692 0c-2.381 0-4.729.227-7.02.688-8.901 1.793-21.095 7.797-28.632 26.242L79.657 84.281l-.048.117-43.882 107.629zm75.7 46.219l61.725-47.424 15.746 15.746-77.471 31.678zm-23.649-19.662l-.969-.969 49.158-63.979 15.791 15.791-63.98 49.157zm-20.234-25.135l31.349-76.889 15.68 15.682-47.029 61.207zm5.678 74.219c-4.999 5-11.647 7.754-18.718 7.754a26.396 26.396 0 0 1-17.656-6.736c-9.397-10.49-8.99-26.365 1.02-36.373l10.606-10.605 35.355 35.355-10.607 10.605zm193.813-116.414c6.631 6.629 8.931 13.225 8.261 16.549-.656 3.26-5.4 5.645-8.173 6.779l-48.112 19.672-21.866-21.865 30.996-23.816c13.967-7.089 30.185-6.028 38.894 2.681zM210.55 94.848c7.56 8.619 7.309 21.467-.536 29.82l-34.264 26.326-21.35-21.35 26.326-34.264c8.354-7.843 21.204-8.091 29.824-.532zm-79.735-56.58c1.131-2.77 3.517-7.514 6.777-8.17 3.318-.668 9.919 1.629 16.548 8.26 8.71 8.711 9.772 24.93 2.682 38.896l-23.815 30.996-21.826-21.826 19.634-48.156z" fill="rgba(0, 0, 0, 1)" stroke="none"/>
</svg>
</g></svg></g></g>
<!-- /image 66987 -->

<!-- image 81067 -->
<g id="transformed-81067" data-image="81067" transform="translate(13.500395528262388, 140.49039552826238) rotate(319, 16.10960447173761, 16.109604471737608)"><g><svg version="1.1" width="32.21920894347522px" height="32.219208943475216px" viewBox="0 0 32.21920894347522 32.219208943475216"><g id="original-81067"><svg xmlns="http://www.w3.org/2000/svg" viewBox="0 0 465 465" xmlns:xlink="http://www.w3.org/1999/xlink" version="1.1" preserveAspectRatio="xMidYMid meet">
  <g transform="translate(0 -540.36)">
    <path d="M408.1 790.36c-4-.8-8 1.8-8.8 5.9-5.3 26.2-15.3 50.8-32.7 79.7-2.1 3.6-1 8.2 2.6 10.3 1.3.8 2.6 1.1 3.9 1.1 2.6 0 5-1.3 6.4-3.7 18.3-30.4 28.9-56.5 34.5-84.5.8-4-1.8-8-5.9-8.8z" fill="rgba(0, 0, 0, 1)" stroke="none"/>
    <path d="M287.675 769.479l-10.607-10.607 24.89-24.89 10.607 10.607z" fill="rgba(0, 0, 0, 1)" stroke="none"/>
    <path d="M96.046 877.822l-10.607-10.607 24.89-24.89 10.607 10.607z" fill="rgba(0, 0, 0, 1)" stroke="none"/>
    <path d="M147.49 804.793l10.607 10.606-24.89 24.89-10.607-10.606z" fill="rgba(0, 0, 0, 1)" stroke="none"/>
    <path d="M222.34 730.3l10.606 10.607-24.89 24.89-10.607-10.607z" fill="rgba(0, 0, 0, 1)" stroke="none"/>
    <path d="M184.988 767.578l10.606 10.606-24.89 24.89-10.606-10.606z" fill="rgba(0, 0, 0, 1)" stroke="none"/>
    <path d="M259.49 692.81l10.607 10.606-24.89 24.89-10.606-10.607z" fill="rgba(0, 0, 0, 1)" stroke="none"/>
    <path d="M296.98 655.558l10.606 10.606-24.89 24.89-10.606-10.606z" fill="rgba(0, 0, 0, 1)" stroke="none"/>
    <path d="M334.2 618.137l10.607 10.607-24.89 24.89-10.606-10.607z" fill="rgba(0, 0, 0, 1)" stroke="none"/>
    <path d="M138.317 918.891l-10.606-10.606 24.89-24.89L163.206 894z" fill="rgba(0, 0, 0, 1)" stroke="none"/>
    <path d="M175.681 881.485l-10.606-10.607 24.89-24.89 10.606 10.607z" fill="rgba(0, 0, 0, 1)" stroke="none"/>
    <path d="M250.325 806.885L239.72 796.28l24.89-24.89 10.606 10.606z" fill="rgba(0, 0, 0, 1)" stroke="none"/>
    <path d="M213.031 844.22l-10.606-10.606 24.89-24.89 10.606 10.607z" fill="rgba(0, 0, 0, 1)" stroke="none"/>
    <path d="M325.04 732.215l-10.607-10.607 24.89-24.89 10.606 10.607z" fill="rgba(0, 0, 0, 1)" stroke="none"/>
    <path d="M362.319 694.879l-10.607-10.607 24.89-24.89 10.607 10.607z" fill="rgba(0, 0, 0, 1)" stroke="none"/>
    <path d="M396.7 608.16c-43.9-43.7-102.2-67.8-164.2-67.8-62.5 0-120.9 24.1-164.7 67.8C24.1 651.86 0 710.36 0 772.86c0 62 24.1 120.3 67.8 164.2 43.9 44 102.4 68.3 164.7 68.3 61.9 0 120.2-24.3 164.2-68.3s68.3-102.4 68.3-164.2c0-62.3-24.3-120.8-68.3-164.7zM15 772.86c0-119.9 97.6-217.5 217.5-217.5 35.5 0 69 8.5 98.6 23.7L38.7 871.46c-15.1-29.6-23.7-63.1-23.7-98.6zm91.8 177.4l19-19-10.6-10.6-20.4 20.4c-11.4-9.3-21.8-19.8-31.1-31.1l19.7-19.7-10.6-10.6-18.3 18.3c-2.9-4.1-5.7-8.4-8.3-12.8l298.5-298.5c4.4 2.6 8.6 5.4 12.8 8.3l-10.8 10.8 10.6 10.6 12.3-12.3c11.3 9.2 21.6 19.4 30.8 30.6l-11.6 12.3 10.9 10.3 9.9-10.5c2.9 4 5.6 8.1 8.2 12.3l-299.1 299.1c-4.1-2.5-8.1-5.1-11.9-7.9zm125.7 40.1c-36.1 0-70.2-8.9-100.2-24.5l293.2-293.2c15.7 30 24.5 64.1 24.5 100.2 0 119.9-97.6 217.5-217.5 217.5z" fill="rgba(0, 0, 0, 1)" stroke="none"/>
    <circle cx="357" cy="904.358" r="7.5" fill="rgba(0, 0, 0, 1)" stroke="none"/>
  </g>
</svg>
</g></svg></g></g>
<!-- /image 81067 -->

<!-- image 22826 -->
<g id="transformed-22826" data-image="22826" transform="translate(85.28849707903606, 129.02849707903607) rotate(344, 30.331502920963946, 30.331502920963946)"><g><svg version="1.1" width="60.66300584192789px" height="60.66300584192789px" viewBox="0 0 60.66300584192789 60.66300584192789"><g id="original-22826"><svg xmlns="http://www.w3.org/2000/svg" viewBox="0 0 49.662 49.662" xmlns:xlink="http://www.w3.org/1999/xlink" version="1.1" preserveAspectRatio="xMidYMid meet">
  <path d="M31.184 19.543a3.631 3.631 0 0 0-.127-.206c-.27-2.645-1.814-4.541-4.246-5.212-1.008-.276-2.205-.241-3.333.093a.07.07 0 0 1-.018-.012c-5.2-3.271-9.677-6.517-13.684-9.922l-.3-.254-.854.854-1.955-1.918a2.605 2.605 0 1 0-3.65 3.718L4.94 8.571l-.694.694.352.298c4.4 3.736 9.292 7.321 14.544 10.658a55.875 55.875 0 0 1-.36 1.784c-.216-.42-.68-.717-1.151-.717-.729 0-1.232.583-1.277 1.278-.021.336.024.646.096.949-.726-.534-1.415-1.345-1.854-1.746-1.213-1.109-3.024.692-1.806 1.806.427.39.875.824 1.348 1.24-3.342-1.129-6.791-2.21-10.432-2.339l-.111-.002c-.929 0-1.862.414-2.557 1.136-.692.717-1.069 1.659-1.036 2.581.144 4.012 1.234 7.936 3.533 12.725l.2.416 1.059-.621 1.379 2.34a2.605 2.605 0 0 0 4.489-2.643L9.29 36.08l.818-.48-.17-.352c-.809-1.688-1.41-3.229-1.827-4.688 4.067 1.032 12.125 3.832 15.545 5.039l.641.221.126-.424c.562-1.885.952-3.443 1.214-4.867.035-.006.072-.01.106-.018-.424 3.12-1.426 6.239-2.402 9.276l-.504 1.576 1.095.303-.607 2.572a2.605 2.605 0 1 0 5.073 1.198l.562-2.385.994.275.318-.996c2.343-7.356 5.003-15.698.912-22.787zm-7.453 15.179c-3.759-1.326-12.384-4.312-16.124-5.16l-.677-.153.169.672c.405 1.617 1.028 3.313 1.902 5.181L4.102 38.13C1.992 33.643.986 29.936.85 26.161c-.024-.693.266-1.406.798-1.957.537-.557 1.247-.875 1.945-.875l.081.001c3.859.137 7.553 1.396 11.126 2.611 1.038.355 2.109.719 3.174 1.053l.424.135.03-.113c2.063 1.185 3.907 3.313 6.335 3.525-.234 1.237-.568 2.587-1.032 4.181zm5.726 7.351l-.07.215-5.472-1.512.233-.73c1.109-3.451 2.246-7.012 2.561-10.605.02-.104.025-.209.021-.313.021-.28.049-.563.059-.846l.027-.755-.658.369c-.078.043-.146.095-.221.142a1.2 1.2 0 0 0-.432-.041c-2.225.172-4.169-2.297-6.051-3.326a6.114 6.114 0 0 0-.234-.748c.324-1.356.59-2.611.809-3.831l.051-.282-.241-.154c-5.17-3.27-9.992-6.782-14.34-10.442L9.52 5.189c3.963 3.341 8.378 6.529 13.483 9.741.035.022.067.045.099.069l.23.163.205-.067c1.026-.341 2.139-.396 3.045-.146 2.104.581 3.43 2.25 3.635 4.577l.011.113.063.093c.053.076.104.154.153.239 3.908 6.762 1.306 14.911-.987 22.102z" fill="rgba(1, 0, 2, 1)" stroke="none"/>
  <circle cx="31.983" cy="9.782" r="5.575" fill="rgba(1, 0, 2, 1)" stroke="none"/>
  <path d="M48.412 40.755l-2.418-1.471.682-1.17-.391-.207c-4.404-2.332-8.506-4.285-12.539-5.969l-.49-.203-.094.521c-.332 1.859-.836 3.882-1.59 6.357l-.111.364.354.15c3.463 1.479 6.988 3.174 10.777 5.18l.361.191.416-.715 2.334 1.42a2.604 2.604 0 1 0 2.709-4.448zm-5.783 2.611c-3.547-1.867-6.867-3.465-10.131-4.871.635-2.117 1.086-3.91 1.404-5.566 3.733 1.578 7.535 3.389 11.592 5.523l-2.865 4.914z" fill="rgba(1, 0, 2, 1)" stroke="none"/>
</svg>
</g></svg></g></g>
<!-- /image 22826 -->

<!-- image 61469 -->
<g id="transformed-61469" data-image="61469" transform="translate(133.38666666666666, 220.82666666666665) rotate(0, 27.083333333333332, 27.083333333333336)"><g><svg version="1.1" width="54.166666666666664px" height="54.16666666666667px" viewBox="0 0 54.166666666666664 54.16666666666667"><g id="original-61469"><svg xmlns="http://www.w3.org/2000/svg" viewBox="0 0 60 60" xmlns:xlink="http://www.w3.org/1999/xlink" version="1.1" preserveAspectRatio="xMidYMid meet">
  <path d="M41.213 31.171l13.895-12.536c4.175-3.855 4.666-10.227 1.099-14.2-.044-.049-4.159-4.366-10.707-1.146V2.128A2.13 2.13 0 0 0 43.372 0H16.628A2.13 2.13 0 0 0 14.5 2.128v1.095C7.975.02 3.837 4.317 3.797 4.363.224 8.341.715 14.713 4.9 18.575l13.548 12.223a15.51 15.51 0 0 0 7.052 4.53v3.481c-1.276 1.223-2 2.907-2 4.69s.724 3.467 2 4.69V52h-2c-3.859 0-7 3.14-7 7v1h27v-1c0-3.86-3.141-7-7-7h-2v-3.81c1.276-1.223 2-2.907 2-4.69s-.724-3.467-2-4.69v-3.481a15.504 15.504 0 0 0 6.713-4.158zm4.199-9.038c.003-.027.007-.053.009-.08.047-.492.079-.987.079-1.487V5.558c5.661-3.348 9.086.075 9.215.208 2.845 3.168 2.413 8.282-.955 11.391l-8.987 8.109a15.39 15.39 0 0 0 .639-3.133zM6.249 17.098c-3.377-3.117-3.81-8.23-.982-11.379.1-.102 1.688-1.689 4.446-1.689 1.334 0 2.942.372 4.787 1.462V20.5c0 .482.029.96.073 1.434.013.137.031.272.047.408.041.348.094.694.159 1.037.026.135.05.271.079.405.084.39.184.776.298 1.157.02.066.035.134.055.2l.016.059-8.978-8.102zM36.5 54a5.008 5.008 0 0 1 4.899 4H18.6a5.009 5.009 0 0 1 4.899-4H36.5zm-3.637-7.028l-.363.3V52h-5v-4.729l-.363-.3c-1.04-.859-1.637-2.125-1.637-3.472s.597-2.613 1.637-3.472l.363-.3v-3.942c.088.015.174.02.262.033.291.042.58.086.876.112.424.04.847.062 1.269.064.031.001.061.006.093.006s.062-.005.093-.005c.422-.003.844-.025 1.269-.064.296-.026.586-.069.876-.112.088-.013.174-.018.262-.033v3.942l.363.3c1.04.859 1.637 2.125 1.637 3.472s-.597 2.613-1.637 3.472zm.385-13.384c-.531.132-1.056.229-1.578.297l-.072.011a12.77 12.77 0 0 1-3.198 0l-.072-.011a13.514 13.514 0 0 1-9.131-5.321 13.875 13.875 0 0 1-.515-.727c-.048-.073-.09-.15-.136-.224-.232-.37-.441-.75-.634-1.136-.106-.214-.217-.426-.312-.646-.061-.14-.109-.283-.165-.425a13.495 13.495 0 0 1-.273-.745c-.046-.141-.085-.285-.127-.427a13.918 13.918 0 0 1-.293-1.218 13.797 13.797 0 0 1-.133-.866c-.016-.127-.035-.254-.047-.382-.037-.418-.062-.84-.062-1.268V2.128c0-.07.057-.128.128-.128h26.744c.07 0 .128.058.128.128V20.5c0 6.322-4.375 11.629-10.252 13.088z" fill="rgba(0, 0, 0, 1)" stroke="none"/>
  <path d="M36.988 20.007l5.428-5.292a1.002 1.002 0 0 0-.555-1.706l-7.501-1.09-3.354-6.797a1 1 0 0 0-1.792 0l-3.355 6.797-7.501 1.09a1 1 0 1 0-.555 1.706l5.429 5.291-1.281 7.471a1.002 1.002 0 0 0 1.451 1.054l6.709-3.527 6.709 3.527a1 1 0 0 0 1.451-1.054l-1.283-7.47zm-2.06-.18l1.027 5.992-5.381-2.829a1.004 1.004 0 0 0-.932 0l-5.381 2.829 1.027-5.992a1 1 0 0 0-.287-.885l-4.354-4.244 6.016-.874a1 1 0 0 0 .753-.547l2.691-5.452 2.69 5.452a1 1 0 0 0 .753.547l6.017.874-4.354 4.244c-.233.23-.34.561-.285.885z" fill="rgba(0, 0, 0, 1)" stroke="none"/>
</svg>
</g></svg></g></g>
<!-- /image 61469 -->

<!-- image 46648 -->
<g id="transformed-46648" data-image="46648" transform="translate(-20.859358744271656, -20.85935874427165) rotate(2, 20.859358744271656, 20.85935874427165)"><g><svg version="1.1" width="41.71871748854331px" height="41.7187174885433px" viewBox="0 0 41.71871748854331 41.7187174885433"><g id="original-46648"><svg xmlns="http://www.w3.org/2000/svg" viewBox="0 0 512 512" xmlns:xlink="http://www.w3.org/1999/xlink" version="1.1" preserveAspectRatio="xMidYMid meet">
  <path d="M493.054 18.947c-25.263-25.263-66.369-25.263-91.632 0L221.273 199.095c-.213.213-.416.435-.61.666L47.742 406.38a32.127 32.127 0 0 0-15.446-3.922c-8.627 0-16.737 3.36-22.836 9.459C3.36 418.018 0 426.128 0 434.756c0 8.627 3.36 16.737 9.459 22.837l44.948 44.947c6.099 6.1 14.21 9.46 22.837 9.46 8.628 0 16.738-3.36 22.837-9.459 6.1-6.099 9.46-14.21 9.46-22.837a32.127 32.127 0 0 0-3.922-15.446l206.619-172.922c.232-.193.453-.397.666-.61l180.148-180.148c25.264-25.263 25.264-66.368.002-91.631zM85.657 488.116a11.818 11.818 0 0 1-8.413 3.484 11.819 11.819 0 0 1-8.412-3.484v-.001l-44.949-44.948a11.819 11.819 0 0 1-3.484-8.412 11.82 11.82 0 0 1 3.485-8.414c2.247-2.247 5.235-3.484 8.412-3.484s6.166 1.238 8.413 3.485l44.948 44.948c2.247 2.247 3.485 5.236 3.485 8.413s-1.237 6.165-3.485 8.413zM478.628 96.154L298.799 275.982 92.148 448.932l-29.08-29.08 172.949-206.651L415.846 33.372c17.309-17.31 45.475-17.308 62.782 0 17.309 17.309 17.309 45.473 0 62.782z" fill="rgba(0, 0, 0, 1)" stroke="none"/>
  <path d="M413.166 68.235c-3.984-3.982-10.441-3.982-14.425 0l-99.959 99.959c-3.983 3.983-3.983 10.442 0 14.426 1.992 1.991 4.602 2.987 7.212 2.987s5.22-.997 7.212-2.987l99.959-99.959c3.984-3.984 3.984-10.442.001-14.426z" fill="rgba(0, 0, 0, 1)" stroke="none"/>
  <path d="M440.704 40.696c-3.984-3.982-10.441-3.982-14.425 0l-4.08 4.08c-3.983 3.983-3.983 10.442 0 14.426 1.992 1.991 4.602 2.987 7.212 2.987s5.22-.997 7.212-2.987l4.08-4.08c3.984-3.983 3.984-10.442.001-14.426z" fill="rgba(0, 0, 0, 1)" stroke="none"/>
</svg>
</g></svg></g></g>
<!-- /image 46648 -->

<!-- image 70189 -->
<g id="transformed-70189" data-image="70189" transform="translate(71.38606846551743, 47.58606846551742) rotate(357, 33.363931534482575, 33.36393153448258)"><g><svg version="1.1" width="66.72786306896515px" height="66.72786306896516px" viewBox="0 0 66.72786306896515 66.72786306896516"><g id="original-70189"><svg xmlns="http://www.w3.org/2000/svg" viewBox="0 0 512 512" xmlns:xlink="http://www.w3.org/1999/xlink" version="1.1" preserveAspectRatio="xMidYMid meet">
  <path d="M510.704 302.195c-19.899-31.901-47.686-58.561-80.359-77.098-33.706-19.124-72.125-29.231-111.101-29.231-2.533 0-5.065.048-7.592.132-8.115-20.231-20.448-38.937-35.951-54.405-30.5-30.422-71.024-47.177-114.106-47.177-43.077 0-83.604 16.754-114.118 47.177C16.861 172.13 0 212.761 0 255.999c0 43.239 16.861 83.869 47.478 114.407 30.512 30.422 71.039 47.174 114.117 47.174 24.962 0 49.749-5.834 71.961-16.885a226.01 226.01 0 0 0 85.688 16.888c38.976 0 77.394-10.109 111.101-29.233 32.672-18.537 60.46-45.197 80.359-77.098a8.56 8.56 0 0 0 0-9.057zM293.645 197.351c-18.093 2.064-35.864 6.278-52.878 12.582 6.156-18.326 15.951-35.22 28.893-49.789a146.014 146.014 0 0 1 23.985 37.207zm-123.491-85.559c32.543 1.89 63.056 14.533 87.399 36.219-18.108 20.127-30.806 44.294-37.042 70.583a222.328 222.328 0 0 0-12.368 6.503c-11.435 6.488-22.253 13.99-32.362 22.342h-5.627V111.792zm-17.118-.001v135.648h-46.221c-1.922-37.09-16.318-71.851-41.172-99.442 24.35-21.678 54.859-34.316 87.393-36.206zM53.52 160.127c21.644 24.33 34.258 54.798 36.145 87.312H17.376c1.886-32.515 14.502-62.983 36.144-87.312zm-36.144 104.43h72.289c-1.886 32.515-14.501 62.983-36.145 87.314-21.643-24.33-34.258-54.8-36.144-87.314zm135.66 135.648c-32.534-1.89-63.044-14.527-87.393-36.205 24.854-27.589 39.25-62.352 41.172-99.443h46.221v4.453a226.131 226.131 0 0 0-25.251 33.186 8.56 8.56 0 0 0 0 9.059 226.114 226.114 0 0 0 25.251 33.184v55.766zm-7.819-93.48c8.461-12.813 18.335-24.635 29.35-35.269v70.539c-11.015-10.636-20.89-22.458-29.35-35.27zm24.937 93.48v-39c11.68 10.309 24.404 19.439 37.989 27.148 1.615.916 3.25 1.793 4.887 2.668a145.209 145.209 0 0 1-42.876 9.184zm276.65-43.364a208.792 208.792 0 0 1-24.906 16.624c-31.136 17.666-66.633 27.003-102.654 27.003s-71.518-9.337-102.654-27.003a208.459 208.459 0 0 1-24.905-16.624v-100.23a208.178 208.178 0 0 1 24.905-16.624c31.136-17.664 66.633-27.003 102.654-27.003 36.02 0 71.518 9.337 102.654 27.003a208.317 208.317 0 0 1 24.906 16.625v100.229zm17.117-14.848v-70.538c11.015 10.635 20.888 22.456 29.35 35.268-8.461 12.814-18.334 24.636-29.35 35.27z" fill="rgba(0, 0, 0, 1)" stroke="none"/>
  <path d="M427.067 298.166h-16.523v-11.905a8.559 8.559 0 0 0-17.118 0v11.905h-24.254v-11.905a8.559 8.559 0 0 0-17.118 0v11.905h-24.252v-11.905a8.559 8.559 0 0 0-17.118 0v11.905h-24.252v-11.905a8.559 8.559 0 0 0-17.118 0v11.905H245.06v-11.905a8.559 8.559 0 0 0-17.118 0v11.905H211.42a8.559 8.559 0 0 0 0 17.118h16.523v11.904a8.559 8.559 0 0 0 17.118 0v-11.904h24.254v11.904a8.559 8.559 0 0 0 17.118 0v-11.904h24.252v11.904a8.559 8.559 0 0 0 17.118 0v-11.904h24.252v11.904a8.559 8.559 0 0 0 17.118 0v-11.904h24.253v11.904a8.559 8.559 0 0 0 17.118 0v-11.904h16.523a8.559 8.559 0 0 0 0-17.118z" fill="rgba(0, 0, 0, 1)" stroke="none"/>
</svg>
</g></svg></g></g>
<!-- /image 70189 -->

<!-- image 89836 -->
<g id="transformed-89836" data-image="89836" transform="translate(159.91564979047234, 55.625649790472366) rotate(16, 25.314350209527642, 25.314350209527635)"><g><svg version="1.1" width="50.628700419055285px" height="50.62870041905527px" viewBox="0 0 50.628700419055285 50.62870041905527"><g id="original-89836"><svg xmlns="http://www.w3.org/2000/svg" viewBox="0 0 28.162 28.162" xmlns:xlink="http://www.w3.org/1999/xlink" version="1.1" preserveAspectRatio="xMidYMid meet">
  <path d="M16.751.197c-3.425 0-6.494 1.523-8.588 3.919a12.88 12.88 0 0 1 2.315-.315l-.126-.265a10.253 10.253 0 0 1 8.423-2.037c-.616.761-1.56 2.104-1.957 3.619.264.13.521.267.771.413.367-1.663 1.544-3.183 2.079-3.806a10.318 10.318 0 0 1 4.629 2.882 38.274 38.274 0 0 0-4.502 2.545c.207.19.412.382.606.585a36.465 36.465 0 0 1 4.453-2.48 10.29 10.29 0 0 1 2.138 5.199c-.849.136-2.66.359-4.492.15.153.283.288.575.42.87.396.03.79.049 1.165.049 1.234 0 2.314-.136 2.959-.24.004.109.018.215.018.325 0 2.953-1.263 5.604-3.26 7.485a12.79 12.79 0 0 1-.49 1.834c2.928-2.067 4.85-5.472 4.85-9.319 0-6.293-5.119-11.413-11.411-11.413z" fill="rgba(0, 0, 0, 1)" stroke="none"/>
  <path d="M20.85 10.147a11.437 11.437 0 0 0-6.694-4.66 11.453 11.453 0 0 0-2.744-.347c-1.227 0-2.407.2-3.515.56a11.46 11.46 0 0 0-6.322 5.092A11.328 11.328 0 0 0 .092 15.17 11.25 11.25 0 0 0 0 16.551c0 2.525.834 4.854 2.227 6.746a11.44 11.44 0 0 0 9.185 4.668c1.714 0 3.335-.392 4.794-1.07a11.456 11.456 0 0 0 4.067-3.167 11.352 11.352 0 0 0 2.551-7.177c0-.201-.02-.399-.031-.601a11.32 11.32 0 0 0-1.943-5.803zm-.371 5.804l-2.348 4.062 1.545 2.679a10.363 10.363 0 0 1-4.021 3.249l-1.177-2.04H9.785l-1.442 2.497a10.338 10.338 0 0 1-5.451-4.046l1.801-3.119-2.347-4.063H1.202a10.242 10.242 0 0 1 1.659-4.376h3.282L8.49 6.729l-.029-.054c.935-.28 1.924-.436 2.95-.436.746 0 1.472.084 2.173.235l-.146.254 2.346 4.062h4.179a10.256 10.256 0 0 1 1.729 5.159l-1.213.002z" fill="rgba(0, 0, 0, 1)" stroke="none"/>
  <path d="M9.064 12.351l-2.346 4.064 2.346 4.064h4.693l2.347-4.064-2.347-4.064z" fill="rgba(0, 0, 0, 1)" stroke="none"/>
</svg>
</g></svg></g></g>
<!-- /image 89836 -->

<!-- image 00904 -->
<g id="transformed-00904" data-image="00904" transform="translate(183.320062723186, 134.750062723186) rotate(358, 21.90993727681398, 21.909937276813984)"><g><svg version="1.1" width="43.81987455362796px" height="43.81987455362797px" viewBox="0 0 43.81987455362796 43.81987455362797"><g id="original-00904"><svg xmlns="http://www.w3.org/2000/svg" viewBox="0 0 56 56" xmlns:xlink="http://www.w3.org/1999/xlink" version="1.1" preserveAspectRatio="xMidYMid meet">
  <path d="M48.476 47.07C53.139 42.066 56 35.363 56 28 56 12.561 43.439 0 28 0a27.954 27.954 0 0 0-14.52 4.054 1 1 0 1 0 1.039 1.709A25.95 25.95 0 0 1 28 2c14.336 0 26 11.664 26 26S42.336 54 28 54 2 42.336 2 28c0-4.767 1.301-9.429 3.763-13.481a1 1 0 1 0-1.709-1.039A27.96 27.96 0 0 0 0 28c0 7.361 2.859 14.063 7.52 19.066L.293 54.293a.999.999 0 1 0 1.414 1.414l7.227-7.227C13.937 53.141 20.639 56 28 56c7.359 0 14.059-2.858 19.062-7.516l7.135 7.219a.996.996 0 0 0 1.414.008 1.001 1.001 0 0 0 .008-1.415l-7.143-7.226z" fill="rgba(0, 0, 0, 1)" stroke="none"/>
  <path d="M1 6h3.586l1 1H3a1 1 0 0 0 0 2h4.586l1 1H6a1 1 0 0 0 0 2h4.586l3.312 3.312C10.864 18.68 9 23.121 9 28c0 10.477 8.523 19 19 19s19-8.523 19-19S38.477 9 28 9c-4.879 0-9.32 1.864-12.688 4.898L12 10.586V6a1 1 0 0 0-2 0v2.586l-1-1V3a1 1 0 0 0-2 0v2.586l-1-1V1a1 1 0 0 0-2 0v1.586L2.707 1.293a.999.999 0 1 0-1.414 1.414L2.586 4H1a1 1 0 0 0 0 2zm27 5c9.374 0 17 7.626 17 17s-7.626 17-17 17-17-7.626-17-17c0-4.328 1.639-8.27 4.311-11.275l4.95 4.95A9.959 9.959 0 0 0 18 28c0 5.514 4.486 10 10 10s10-4.486 10-10-4.486-10-10-10c-2.398 0-4.6.85-6.324 2.262l-4.95-4.95C19.73 12.639 23.672 11 28 11zm-1.926 16.488A2.017 2.017 0 0 0 26 28a2 2 0 1 0 2-2c-.178 0-.347.031-.512.074l-4.386-4.386A7.953 7.953 0 0 1 28 20c4.411 0 8 3.589 8 8s-3.589 8-8 8-8-3.589-8-8c0-1.846.634-3.542 1.688-4.898l4.386 4.386z" fill="rgba(0, 0, 0, 1)" stroke="none"/>
</svg>
</g></svg></g></g>
<!-- /image 00904 -->
</defs><rect x="0" y="0" width="250" height="250" fill="rgba(196, 63, 63, 0)"></rect><use xlink:href="#transformed-46804" transform="translate(-250, -250)"></use><use xlink:href="#transformed-46804" transform="translate(0, -250)"></use><use xlink:href="#transformed-46804" transform="translate(250, -250)"></use><use xlink:href="#transformed-46804" transform="translate(-250, 0)"></use><use xlink:href="#transformed-46804" transform="translate(0, 0)"></use><use xlink:href="#transformed-46804" transform="translate(250, 0)"></use><use xlink:href="#transformed-46804" transform="translate(-250, 250)"></use><use xlink:href="#transformed-46804" transform="translate(0, 250)"></use><use xlink:href="#transformed-46804" transform="translate(250, 250)"></use><use xlink:href="#transformed-66987" transform="translate(-250, -250)"></use><use xlink:href="#transformed-66987" transform="translate(0, -250)"></use><use xlink:href="#transformed-66987" transform="translate(250, -250)"></use><use xlink:href="#transformed-66987" transform="translate(-250, 0)"></use><use xlink:href="#transformed-66987" transform="translate(0, 0)"></use><use xlink:href="#transformed-66987" transform="translate(250, 0)"></use><use xlink:href="#transformed-66987" transform="translate(-250, 250)"></use><use xlink:href="#transformed-66987" transform="translate(0, 250)"></use><use xlink:href="#transformed-66987" transform="translate(250, 250)"></use><use xlink:href="#transformed-81067" transform="translate(-250, -250)"></use><use xlink:href="#transformed-81067" transform="translate(0, -250)"></use><use xlink:href="#transformed-81067" transform="translate(250, -250)"></use><use xlink:href="#transformed-81067" transform="translate(-250, 0)"></use><use xlink:href="#transformed-81067" transform="translate(0, 0)"></use><use xlink:href="#transformed-81067" transform="translate(250, 0)"></use><use xlink:href="#transformed-81067" transform="translate(-250, 250)"></use><use xlink:href="#transformed-81067" transform="translate(0, 250)"></use><use xlink:href="#transformed-81067" transform="translate(250, 250)"></use><use xlink:href="#transformed-22826" transform="translate(-250, -250)"></use><use xlink:href="#transformed-22826" transform="translate(0, -250)"></use><use xlink:href="#transformed-22826" transform="translate(250, -250)"></use><use xlink:href="#transformed-22826" transform="translate(-250, 0)"></use><use xlink:href="#transformed-22826" transform="translate(0, 0)"></use><use xlink:href="#transformed-22826" transform="translate(250, 0)"></use><use xlink:href="#transformed-22826" transform="translate(-250, 250)"></use><use xlink:href="#transformed-22826" transform="translate(0, 250)"></use><use xlink:href="#transformed-22826" transform="translate(250, 250)"></use><use xlink:href="#transformed-61469" transform="translate(-250, -250)"></use><use xlink:href="#transformed-61469" transform="translate(0, -250)"></use><use xlink:href="#transformed-61469" transform="translate(250, -250)"></use><use xlink:href="#transformed-61469" transform="translate(-250, 0)"></use><use xlink:href="#transformed-61469" transform="translate(0, 0)"></use><use xlink:href="#transformed-61469" transform="translate(250, 0)"></use><use xlink:href="#transformed-61469" transform="translate(-250, 250)"></use><use xlink:href="#transformed-61469" transform="translate(0, 250)"></use><use xlink:href="#transformed-61469" transform="translate(250, 250)"></use><use xlink:href="#transformed-46648" transform="translate(-250, -250)"></use><use xlink:href="#transformed-46648" transform="translate(0, -250)"></use><use xlink:href="#transformed-46648" transform="translate(250, -250)"></use><use xlink:href="#transformed-46648" transform="translate(-250, 0)"></use><use xlink:href="#transformed-46648" transform="translate(0, 0)"></use><use xlink:href="#transformed-46648" transform="translate(250, 0)"></use><use xlink:href="#transformed-46648" transform="translate(-250, 250)"></use><use xlink:href="#transformed-46648" transform="translate(0, 250)"></use><use xlink:href="#transformed-46648" transform="translate(250, 250)"></use><use xlink:href="#transformed-70189" transform="translate(-250, -250)"></use><use xlink:href="#transformed-70189" transform="translate(0, -250)"></use><use xlink:href="#transformed-70189" transform="translate(250, -250)"></use><use xlink:href="#transformed-70189" transform="translate(-250, 0)"></use><use xlink:href="#transformed-70189" transform="translate(0, 0)"></use><use xlink:href="#transformed-70189" transform="translate(250, 0)"></use><use xlink:href="#transformed-70189" transform="translate(-250, 250)"></use><use xlink:href="#transformed-70189" transform="translate(0, 250)"></use><use xlink:href="#transformed-70189" transform="translate(250, 250)"></use><use xlink:href="#transformed-89836" transform="translate(-250, -250)"></use><use xlink:href="#transformed-89836" transform="translate(0, -250)"></use><use xlink:href="#transformed-89836" transform="translate(250, -250)"></use><use xlink:href="#transformed-89836" transform="translate(-250, 0)"></use><use xlink:href="#transformed-89836" transform="translate(0, 0)"></use><use xlink:href="#transformed-89836" transform="translate(250, 0)"></use><use xlink:href="#transformed-89836" transform="translate(-250, 250)"></use><use xlink:href="#transformed-89836" transform="translate(0, 250)"></use><use xlink:href="#transformed-89836" transform="translate(250, 250)"></use><use xlink:href="#transformed-00904" transform="translate(-250, -250)"></use><use xlink:href="#transformed-00904" transform="translate(0, -250)"></use><use xlink:href="#transformed-00904" transform="translate(250, -250)"></use><use xlink:href="#transformed-00904" transform="translate(-250, 0)"></use><use xlink:href="#transformed-00904" transform="translate(0, 0)"></use><use xlink:href="#transformed-00904" transform="translate(250, 0)"></use><use xlink:href="#transformed-00904" transform="translate(-250, 250)"></use><use xlink:href="#transformed-00904" transform="translate(0, 250)"></use><use xlink:href="#transformed-00904" transform="translate(250, 250)"></use></svg>